# xmcd CD database generated by RipIT
#
# Track frame offsets:
# 150
# 21280
# 42033
# 66665
# 81306
# 95412
# 107408
# 121594
# 135621
# 148745
# 164818
# 180731
# 195217
# 215220
# 235658
#
# Disc length: 3380 seconds
#
# Revision: 1
# Processed by: cddbd v1.5.2PL0 Copyright (c) Steve Scherf et al.
# Submitted via: RipIT 3.7.0 www.suwald.com/ripit/ripit.html on 2009-07-05 at 16:04
#
DISCID=d40d320f
DTITLE=Faces - The Definitive Rock Collection [CD2]
DYEAR=2007
DGENRE=Rock
TTITLE0=Stay With Me
TTITLE1=Debris
TTITLE2=Memphis, Tennessee
TTITLE3=Too Bad
TTITLE4=Silicone Grown
TTITLE5=Cindy Incidentally
TTITLE6=My Fault
TTITLE7=Glad And Sorry
TTITLE8=Borstal Boys
TTITLE9=Just Another Honky
TTITLE10=Ooh La La
TTITLE11=Jodie
TTITLE12=Pool Hall Richard
TTITLE13=You Can Make Me Dance, Sing or Anything
TTITLE14=Open To Ideas
EXTD=
EXTT0=
EXTT1=
EXTT2=
EXTT3=
EXTT4=
EXTT5=
EXTT6=
EXTT7=
EXTT8=
EXTT9=
EXTT10=
EXTT11=
EXTT12=
EXTT13=
EXTT14=
PLAYORDER=
